# xmcd
#
# Track frame offsets:
# 150
# 18228
# 45986
# 67060
# 77640
# 98208
# 114928
# 134705
# 151829
# 172615
# 182903
# 207243
# 231575
# 244941
# 262854
#
# Disc length: 4203 seconds
#
#
# Revision: 0
# Processed by: cddbd v1.4PL0 Copyright (c) Steve Scherf et al.
# Submitted via: FreeRIP 2.53 
#
DISCID=c110690f
DTITLE=Mike Oldfield - Tr3s Lunas
DYEAR=1900
DGENRE=Bass
TTITLE0=Misty
TTITLE1=No Mans Land
TTITLE2=Return To The Origin
TTITLE3=Landfall
TTITLE4=Viper
TTITLE5=Turtle Istalnd
TTITLE6=To be Free
TTITLE7=Fire Fly
TTITLE8=Tr3s Lunas
TTITLE9=Daydream
TTITLE10=Thou Art In Heaven
TTITLE11=Sirius
TTITLE12=No Mans Land Reprise
TTITLE13=To Be Free (Radio Edit)
TTITLE14=Bonus Trak
EXTD=
EXTT0=
EXTT1=
EXTT2=
EXTT3=
EXTT4=
EXTT5=
EXTT6=
EXTT7=
EXTT8=
EXTT9=
EXTT10=
EXTT11=
EXTT12=
EXTT13=
EXTT14=
PLAYORDER=
